<?xml version="1.0" encoding="utf-8"?>
<!-- Generator: Adobe Illustrator 22.0.0, SVG Export Plug-In . SVG Version: 6.00 Build 0)  -->
<svg version="1.1" id="logo_x5F_white" xmlns="http://www.w3.org/2000/svg" xmlns:xlink="http://www.w3.org/1999/xlink" x="0px"
	 y="0px" viewBox="0 0 255.5 54.4" style="enable-background:new 0 0 255.5 54.4;" xml:space="preserve">
<style type="text/css">
	.st0{fill:#FFFFFF;}
</style>
<g>
	<path class="st0" d="M29.8,37.9l8.8-8.8C37.6,33.5,34.1,37,29.8,37.9z M15.9,29.1l8.8,8.8C20.3,37,16.9,33.5,15.9,29.1z M20.6,17.2
		l5.2,5.2v4.2l-7.4-7.4C19,18.4,19.7,17.7,20.6,17.2z M36.1,19.2l-7.4,7.3v-4.2l5.2-5.2C34.7,17.7,35.4,18.4,36.1,19.2z M28.7,30.7
		l9-9c0.5,1,0.8,2.1,1,3.2l-10,10V30.7z M25.8,34.8l-10-10c0.2-1.1,0.5-2.2,1-3.2l9,9V34.8z M28.7,15.2c0.9,0.1,1.7,0.3,2.5,0.6
		l-2.5,2.4V15.2z M25.8,18.2l-2.5-2.5c0.8-0.3,1.6-0.5,2.5-0.6V18.2z M27.2,12.1c-8,0-14.6,6.5-14.6,14.6c0,7.5,5.8,13.7,13.1,14.4
		v5.2h3v-5.2c7.3-0.7,13.1-6.9,13.1-14.4C41.8,18.6,35.3,12.1,27.2,12.1z"/>
	<path class="st0" d="M27.2,3.5C14.1,3.5,3.4,14.2,3.4,27.3s10.7,23.8,23.8,23.8S51,40.4,51,27.3C51,14.1,40.4,3.5,27.2,3.5z
		 M27.2,54.3c-14.9,0-27.1-12.1-27.1-27.1c0-14.9,12.1-27.1,27.1-27.1c14.9,0,27.1,12.1,27.1,27.1S42.2,54.3,27.2,54.3z"/>
	<path class="st0" d="M64.1,19.9v-7.1c0.2-0.1,0.5-0.1,0.8-0.2s0.7-0.1,1.1-0.2c0.7-0.1,1.6-0.2,2.5-0.3c1-0.1,2-0.2,3.1-0.2
		c4.8,0,8.7,1.5,11.7,4.5s4.6,7,4.6,12c0,4.9-1.5,8.9-4.5,12s-7.3,4.7-13,4.7c-1.4,0-2.6-0.1-3.6-0.2c-1-0.1-1.9-0.3-2.7-0.5v-7.2
		c0.7,0.2,1.5,0.4,2.3,0.6c0.9,0.2,1.8,0.2,3,0.2c3,0,5.3-0.8,6.9-2.4c1.6-1.6,2.4-3.8,2.4-6.5c0-3.1-0.9-5.6-2.8-7.3
		c-1.8-1.7-4.2-2.6-7.1-2.6c-0.9,0-1.7,0.1-2.5,0.2C65.6,19.5,64.8,19.7,64.1,19.9z M63.1,24.1h12.6c0.1,0.1,0.1,0.2,0.2,0.3
		s0.1,0.2,0.2,0.3c0.2,0.5,0.4,1,0.6,1.6s0.3,1.4,0.3,2.2c0,0.4,0,0.8-0.1,1.2c0,0.4-0.1,0.9-0.3,1.4H63.1V24.1z M91.9,12.8h9v6.4
		c0.5-0.1,1-0.3,1.5-0.6c0.5-0.3,1.1-0.5,1.6-0.9c1.1-0.6,2.1-1.3,3-2.2c1-0.9,1.8-1.8,2.4-2.8h10.8c-0.3,0.6-0.7,1.3-1.2,2
		s-1,1.4-1.5,2.1c-1,1.3-2.2,2.5-3.5,3.6c-1.3,1.2-2.6,2.1-4,2.9c1.8,1.9,3.4,4,4.9,6.3c1.4,2.3,2.6,4.6,3.6,6.9
		c0.6,1.3,1.1,2.7,1.5,4s0.7,2.6,1,3.9h-9.3c-0.5-2.7-1.3-5.2-2.5-7.5s-2.4-4.3-3.8-6c-0.5-0.7-1-1.4-1.5-2s-1-1.1-1.5-1.6
		c-0.2,0.1-0.5,0.2-0.7,0.3c-0.3,0.1-0.5,0.2-0.8,0.3v16.5h-9V12.8z M122.4,28.6c0-5.4,1.6-9.6,4.7-12.4c3.1-2.8,7-4.2,11.7-4.2
		c4.6,0,8.5,1.4,11.7,4.2s4.8,6.9,4.8,12.4c0,5.4-1.6,9.5-4.8,12.3s-7.1,4.2-11.7,4.2c-4.7,0-8.6-1.4-11.7-4.2
		C123.9,38.1,122.4,34,122.4,28.6z M131.6,28.6c0,2.5,0.5,4.7,1.6,6.6c1.1,1.9,2.9,2.8,5.5,2.8s4.4-0.9,5.5-2.8
		c1.1-1.9,1.7-4.1,1.7-6.6s-0.6-4.7-1.7-6.6c-1.1-1.9-2.9-2.8-5.5-2.8s-4.5,0.9-5.5,2.8C132.2,23.9,131.6,26.1,131.6,28.6z
		 M159.2,12.8h28v31.6h-9V19.9h-10v24.5h-9V12.8z M191.1,28.6c0-5.4,1.6-9.6,4.7-12.4s7-4.2,11.7-4.2c4.6,0,8.5,1.4,11.7,4.2
		s4.8,6.9,4.8,12.4c0,5.4-1.6,9.5-4.8,12.3s-7.1,4.2-11.7,4.2c-4.7,0-8.6-1.4-11.7-4.2S191.1,34,191.1,28.6z M200.4,28.6
		c0,2.5,0.5,4.7,1.6,6.6c1.1,1.9,2.9,2.8,5.5,2.8s4.4-0.9,5.5-2.8s1.7-4.1,1.7-6.6s-0.6-4.7-1.7-6.6c-1.1-1.9-2.9-2.8-5.5-2.8
		S203,20.1,202,22C200.9,23.9,200.4,26.1,200.4,28.6z M246.3,19.9h-1.1c-0.5,0-1.1,0-1.9,0.1c-0.8,0.1-1.5,0.3-2.3,0.7
		c-1.3,0.6-2.5,1.8-3.5,3.6c-1.1,1.8-1.6,4.5-1.6,8.3c0,0.9,0,1.8,0.1,3c0,1.1,0.1,2.3,0.2,3.5c0.1,1,0.1,1.9,0.2,2.9
		s0.2,1.8,0.3,2.6h-9.1c-0.4-3.2-0.6-5.7-0.7-7.6c-0.1-1.9-0.2-3.3-0.2-4.3c0-6.2,1-10.7,3.1-13.5c2-2.8,4.3-4.6,6.7-5.5
		c0.9-0.3,1.8-0.5,2.6-0.6c0.9-0.1,1.7-0.2,2.5-0.2h13.7v31.5h-9V19.9z"/>
</g>
</svg>
