<svg xmlns="http://www.w3.org/2000/svg" viewBox="0 0 258.3 52.824">
  <defs>
    <style>
      .cls-1 {
        fill: #6D953F;
      }
    </style>
  </defs>
  <g id="Group_18" data-name="Group 18" transform="translate(0 0.033)">
    <path id="Path_10" data-name="Path 10" class="cls-1" d="M22.8.4C8.9,2.8,0,13,0,26.4c0,7.7,1.8,12.3,6.7,17.8,10.6,11.7,31.1,11.4,41.7-.6C64.9,24.8,47.9-3.9,22.8.4Zm15,4.4c5.5,2.5,11,8.1,13.1,13.2,1.9,4.6,1.7,13.1-.5,17.9C48,41.1,40.5,48,35.7,49.3c-10.2,2.8-18.7.8-25.9-6.2C2.1,35.6.2,26.6,4.4,17.4,10.3,4.4,25.1-1.2,37.8,4.8Z"/>
    <path id="Path_11" data-name="Path 11" class="cls-1" d="M23.5,12.4c-4.4,1-9,5.5-10.2,9.9-1.9,6.9,2.4,14.5,9.5,16.8,2.2.7,3.1,1.7,3.3,3.6.4,3.5,2,3.5,2.4,0,.2-1.9,1.1-2.9,3.3-3.6,6.6-2.1,11.4-9.6,10-15.8-1-4.3-6-9.7-10.3-10.9a41.963,41.963,0,0,0-4.2-.9C27,11.6,25.3,12,23.5,12.4ZM26.3,16c0,1.7-2.2,1.4-2.8-.4-.2-.7.3-1.2,1.2-1.2A1.58,1.58,0,0,1,26.3,16Zm4.8-.4c-.6,1.8-2.8,2.1-2.8.4a1.58,1.58,0,0,1,1.6-1.6C30.8,14.4,31.3,14.9,31.1,15.6Zm-7.6,3.5c2.6,2.5,3.8,6.3,2,6.3-1.6,0-7.4-6.8-6.8-7.9C19.7,15.9,20.4,16.1,23.5,19.1Zm12.4-1.6c.6,1.1-5.2,7.9-6.8,7.9-1.7,0-.7-3.5,1.9-6.2C33.9,16.2,34.8,15.8,35.9,17.5ZM26.3,32.2c0,2.1-.4,2-5.5-2.5s-6.5-7-4.8-8.7C17.2,19.8,26.3,29.6,26.3,32.2Zm13-8.9c0,1-2.5,4-5.5,6.6-5,4.3-5.5,4.5-5.5,2.4,0-1.4,1.8-4.2,4.7-7.1C37.7,20.5,39.3,20,39.3,23.3Zm-15,13.3c0,1.7-2.4.6-5.6-2.6-5-5-4.2-6.3,1.1-1.9C22.3,34.1,24.3,36.2,24.3,36.6Zm13.6-4.7c-1.9,2.9-6.4,6.1-7.3,5.2-.6-.7,7.9-8.8,8.6-8.1C39.4,29.2,38.8,30.5,37.9,31.9Z"/>
    <path id="Path_12" data-name="Path 12" class="cls-1" d="M67.1,11.1c-2.3.4-2.8.9-2.8,3.4,0,2.8.2,2.9,4.6,2.9,6.4,0,10.4,3.9,10.4,10.2s-3.2,9.2-10,9.1c-4.8-.1-5,0-5,2.7,0,2.3.5,2.9,3.3,3.4,5.3,1,12.5-.8,15.8-3.9,7.5-7.3,6.1-20.5-2.7-25.7C77.5,11.3,71.3,10.4,67.1,11.1Z"/>
    <path id="Path_13" data-name="Path 13" class="cls-1" d="M137.8,11.1c-9.2,1.8-13.5,6.9-13.5,15.9,0,10.5,5.4,15.7,16.2,15.7,7.3,0,13-3.4,14.8-8.9,1.9-5.5.8-13.9-2.1-17C149.2,12.5,142.7,10.1,137.8,11.1Zm7.5,8.3c2.8,2.8,3,10.7.4,14.8-1.3,1.9-2.2,2.3-5.7,2-3.7-.3-4.4-.7-6.1-4.1-3.3-6.9.1-14.7,6.4-14.7A8,8,0,0,1,145.3,19.4Z"/>
    <path id="Path_14" data-name="Path 14" class="cls-1" d="M206.3,11.4c-9.4,1.7-14.1,9.7-11.9,20.2,3.2,14.6,26.2,15.4,31,1.1,1.5-4.6.6-11.8-1.8-15.2C219.8,12.5,213.1,10.1,206.3,11.4Zm8.9,8.6c2.6,3.3,2.8,10.9.5,14.2-1.1,1.6-2.5,2.2-5.4,2.2-5.1,0-8-3.5-8-9.7C202.3,18.4,210.6,14.2,215.2,20Z"/>
    <path id="Path_15" data-name="Path 15" class="cls-1" d="M93.3,26.9V42.4h8V34.5c0-4.8.4-8.3,1.1-8.7,1.5-.9,5.3,3.9,8.7,10.8,2.6,5.6,2.9,5.8,6.6,5.8s3.8-.1,3.1-2.8c-.9-3.8-5.3-12.3-7.6-14.8-2-2.2-2.5-4.4-.9-4.4,1.1,0,8-7,8-8.2,0-.4-2.1-.8-4.6-.8-3.7,0-5.3.6-8.1,3-1.8,1.6-4,3-4.8,3q-1.5,0-1.5-3c0-2.8-.2-3-4-3h-4V26.9Z"/>
    <path id="Path_16" data-name="Path 16" class="cls-1" d="M161.3,26.9V42.4h8v-24h11v24h9v-31h-28Z"/>
    <path id="Path_17" data-name="Path 17" class="cls-1" d="M238.4,13.2c-6.3,3.2-7.6,6-7.9,18.3l-.4,10.9h9l-.5-5.9a49.843,49.843,0,0,1,.1-9.6c.9-4.5,4.6-8.5,8.1-8.5h2.5v24h9v-31h-8.2C244.2,11.4,240.8,11.9,238.4,13.2Z"/>
    <path id="Path_18" data-name="Path 18" class="cls-1" d="M63.3,26.4v3H77.4l-.3-2.8c-.3-2.6-.5-2.7-7-3l-6.8-.3Z"/>
  </g>
</svg>
