<svg>
 xmlns="http://www.w3.org/2000/svg"
 xmlns:xlink="http://www.w3.org/1999/xlink"
 width="17px" height="17px">
<path fill-rule="evenodd"  fill="#6D953F"
 d="M16.991,13.415 C17.027,13.691 16.943,13.930 16.739,14.135 L14.345,16.511 C14.237,16.631 14.096,16.734 13.923,16.817 C13.749,16.901 13.578,16.955 13.410,16.979 C13.398,16.979 13.362,16.983 13.302,16.988 C13.242,16.994 13.164,16.997 13.068,16.997 C12.840,16.997 12.471,16.958 11.961,16.880 C11.451,16.802 10.827,16.610 10.090,16.304 C9.352,15.998 8.515,15.539 7.579,14.927 C6.644,14.315 5.648,13.475 4.592,12.406 C3.753,11.578 3.057,10.786 2.505,10.030 C1.953,9.273 1.509,8.574 1.173,7.932 C0.837,7.290 0.585,6.708 0.417,6.186 C0.250,5.664 0.136,5.213 0.076,4.835 C0.016,4.457 -0.008,4.160 0.004,3.944 C0.016,3.728 0.022,3.608 0.022,3.584 C0.046,3.416 0.100,3.245 0.184,3.071 C0.268,2.897 0.370,2.756 0.489,2.648 L2.883,0.253 C3.051,0.085 3.243,0.001 3.459,0.001 C3.615,0.001 3.753,0.046 3.872,0.136 C3.993,0.226 4.094,0.337 4.178,0.469 L6.104,4.124 C6.212,4.316 6.242,4.526 6.194,4.755 C6.146,4.983 6.044,5.174 5.888,5.330 L5.006,6.213 C4.982,6.237 4.961,6.276 4.943,6.330 C4.925,6.384 4.916,6.429 4.916,6.465 C4.964,6.717 5.072,7.005 5.240,7.329 C5.384,7.617 5.606,7.968 5.906,8.382 C6.206,8.796 6.632,9.273 7.184,9.813 C7.723,10.366 8.203,10.795 8.623,11.101 C9.043,11.407 9.394,11.632 9.676,11.776 C9.958,11.920 10.174,12.007 10.324,12.037 L10.548,12.082 C10.573,12.082 10.612,12.073 10.666,12.055 C10.719,12.037 10.758,12.016 10.783,11.992 L11.808,10.948 C12.024,10.756 12.276,10.660 12.564,10.660 C12.768,10.660 12.930,10.696 13.050,10.768 L13.068,10.768 L16.541,12.821 C16.793,12.976 16.943,13.174 16.991,13.415 Z"/>
</svg>
