<svg xmlns="http://www.w3.org/2000/svg" viewBox="0 0 31.927 38.599">
  <path id="Path_34" data-name="Path 34" d="M31.911,30.65a2.11,2.11,0,0,1-.473,1.636l-4.5,5.4a2.616,2.616,0,0,1-.794.7,2.89,2.89,0,0,1-.963.368c-.023,0-.09.007-.2.021a3.809,3.809,0,0,1-.439.021,12.977,12.977,0,0,1-2.079-.266,13.835,13.835,0,0,1-3.515-1.308,28.383,28.383,0,0,1-4.715-3.128A37.792,37.792,0,0,1,8.624,28.36a43.408,43.408,0,0,1-3.921-5.4A40.335,40.335,0,0,1,2.2,18.2a28.747,28.747,0,0,1-1.42-3.966,24.734,24.734,0,0,1-.642-3.067A12.209,12.209,0,0,1,.006,9.143q.034-.736.034-.818a4.6,4.6,0,0,1,.3-1.165A3.109,3.109,0,0,1,.918,6.2L5.413.76A1.382,1.382,0,0,1,6.495.188a1.123,1.123,0,0,1,.777.307,2.716,2.716,0,0,1,.575.756l3.616,8.3a2.359,2.359,0,0,1,.169,1.431,2.751,2.751,0,0,1-.575,1.308l-1.656,2a.733.733,0,0,0-.118.266,1.2,1.2,0,0,0-.051.307,8.414,8.414,0,0,0,.608,1.963,18.926,18.926,0,0,0,1.251,2.392,25.635,25.635,0,0,0,2.4,3.251A24.466,24.466,0,0,0,16.2,25.4a15.582,15.582,0,0,0,1.977,1.533,4.761,4.761,0,0,0,1.217.593l.422.1a.689.689,0,0,0,.22-.061.545.545,0,0,0,.22-.143l1.926-2.372a1.883,1.883,0,0,1,1.42-.654,1.522,1.522,0,0,1,.913.245h.034L31.066,29.3A2.064,2.064,0,0,1,31.911,30.65Z" transform="translate(0 -0.188)"/>
</svg>
