<svg xmlns="http://www.w3.org/2000/svg" viewBox="0 0 82.199 78.82">
  <defs>
    <style>
      .cls-1 {
        fill: #64ab3c;
      }
    </style>
  </defs>
  <g id="recycling" transform="translate(0 -10.523)">
    <g id="Group_5" data-name="Group 5" transform="translate(17.125 10.523)">
      <g id="Group_4" data-name="Group 4">
        <path id="Path_1" data-name="Path 1" class="cls-1" d="M149.868,27.019l-9.525-16.5H120.566L106.671,34.587l14.83,8.564,8.953-15.508,4.583,7.939-5.9,3.4,10.089,2.085,10.089,2.085,3.239-9.778,3.241-9.781Zm-29.62,11.454-8.9-5.137,11.193-19.388h0l5.93,10.272ZM149.308,32.3l-2.28,6.886-7.1-1.468-1.277-.263,1.069-.615L138,33.87,126.5,13.947h11.865L146.9,28.732l1.713,2.967,1.106-.64Z" transform="translate(-106.671 -10.523)"/>
      </g>
    </g>
    <g id="Group_7" data-name="Group 7" transform="translate(39.562 41.3)">
      <g id="Group_6" data-name="Group 6">
        <path id="Path_2" data-name="Path 2" class="cls-1" d="M275.167,202.227l-14.83,8.564,8.95,15.505h-9.166V219.49l-6.848,7.694-6.851,7.7,6.851,7.7,6.848,7.694v-6.848h19.05l9.886-17.126,0,0Zm2.027,37.768H256.7v1.277l-.868-.973-4.821-5.418,4.821-5.418.868-.973v1.232h26.43Zm7.909-13.7h-11.86l-8.228-14.251,8.9-5.137,11.193,19.386Z" transform="translate(-246.422 -202.227)"/>
      </g>
    </g>
    <g id="Group_9" data-name="Group 9" transform="translate(0 41.227)">
      <g id="Group_8" data-name="Group 8">
        <path id="Path_3" data-name="Path 3" class="cls-1" d="M19.772,225.868l4.583-7.94,5.9,3.4-3.238-9.781-3.241-9.778-10.089,2.085L3.592,205.943l5.933,3.424L0,225.863l0,0,9.886,17.123H37.678V225.868Zm-15.816-.005,8.536-14.783,1.711-2.967-1.1-.637,1.277-.263,7.1-1.468,2.283,6.886.409,1.237L23.1,213.25l-1.711,2.967-11.5,19.92Zm30.3,13.7H11.868l0,0,5.93-10.272H34.251Z" transform="translate(0 -201.774)"/>
      </g>
    </g>
  </g>
</svg>
