<?xml version="1.0" encoding="utf-8"?>
<!-- Generator: Adobe Illustrator 22.0.1, SVG Export Plug-In . SVG Version: 6.00 Build 0)  -->
<svg version="1.1" id="logo_x5F_white" xmlns="http://www.w3.org/2000/svg" xmlns:xlink="http://www.w3.org/1999/xlink" x="0px"
	 y="0px" viewBox="0 0 274.7 74.7" style="enable-background:new 0 0 274.7 74.7;" xml:space="preserve">
<style type="text/css">
	.st0{fill-rule:evenodd;clip-rule:evenodd;fill:#FFFFFF;}
</style>
<g>
	<path class="st0" d="M39.1,48.5l8.8-8.8C46.9,44.1,43.4,47.6,39.1,48.5z M25.2,39.7l8.8,8.8C29.6,47.6,26.2,44.1,25.2,39.7z
		 M29.9,27.8l5.2,5.2l0,4.2l-7.4-7.4C28.3,29,29,28.3,29.9,27.8z M45.4,29.8L38,37.1l0-4.2l5.2-5.2C44,28.3,44.7,29,45.4,29.8z
		 M38,41.3l9-9c0.5,1,0.8,2.1,1,3.2l-10,10L38,41.3z M35.1,45.4l-10-10c0.2-1.1,0.5-2.2,1-3.2l9,9L35.1,45.4z M38,25.8
		c0.9,0.1,1.7,0.3,2.5,0.6L38,28.8V25.8z M35.1,28.8l-2.5-2.5c0.8-0.3,1.6-0.5,2.5-0.6L35.1,28.8z M36.5,22.7
		c-8,0-14.6,6.5-14.6,14.6c0,7.5,5.8,13.7,13.1,14.4l0,5.2H38l0-5.2c7.3-0.7,13.1-6.9,13.1-14.4C51.1,29.2,44.6,22.7,36.5,22.7z"/>
	<path class="st0" d="M36.5,14.1c-13.1,0-23.8,10.7-23.8,23.8c0,13.1,10.7,23.8,23.8,23.8c13.1,0,23.8-10.7,23.8-23.8
		C60.3,24.7,49.7,14.1,36.5,14.1z M36.5,64.9c-14.9,0-27.1-12.1-27.1-27.1c0-14.9,12.1-27.1,27.1-27.1c14.9,0,27.1,12.1,27.1,27.1
		C63.6,52.8,51.5,64.9,36.5,64.9z"/>
	<path class="st0" d="M73.4,30.5v-7.1c0.2-0.1,0.5-0.1,0.8-0.2c0.3-0.1,0.7-0.1,1.1-0.2c0.7-0.1,1.6-0.2,2.5-0.3
		c1-0.1,2-0.2,3.1-0.2c4.8,0,8.7,1.5,11.7,4.5s4.6,7,4.6,12c0,4.9-1.5,8.9-4.5,12c-3,3.1-7.3,4.7-13,4.7c-1.4,0-2.6-0.1-3.6-0.2
		c-1-0.1-1.9-0.3-2.7-0.5v-7.2c0.7,0.2,1.5,0.4,2.3,0.6c0.9,0.2,1.8,0.2,3,0.2c3,0,5.3-0.8,6.9-2.4c1.6-1.6,2.4-3.8,2.4-6.5
		c0-3.1-0.9-5.6-2.8-7.3c-1.8-1.7-4.2-2.6-7.1-2.6c-0.9,0-1.7,0.1-2.5,0.2C74.9,30.1,74.1,30.3,73.4,30.5z M72.4,34.7H85
		c0.1,0.1,0.1,0.2,0.2,0.3c0.1,0.1,0.1,0.2,0.2,0.3c0.2,0.5,0.4,1,0.6,1.6c0.2,0.6,0.3,1.4,0.3,2.2c0,0.4,0,0.8-0.1,1.2
		c0,0.4-0.1,0.9-0.3,1.4H72.4V34.7z M101.2,23.4h9v6.4c0.5-0.1,1-0.3,1.5-0.6c0.5-0.3,1.1-0.5,1.6-0.9c1.1-0.6,2.1-1.3,3-2.2
		c1-0.9,1.8-1.8,2.4-2.8h10.8c-0.3,0.6-0.7,1.3-1.2,2c-0.5,0.7-1,1.4-1.5,2.1c-1,1.3-2.2,2.5-3.5,3.6c-1.3,1.2-2.6,2.1-4,2.9
		c1.8,1.9,3.4,4,4.9,6.3c1.4,2.3,2.6,4.6,3.6,6.9c0.6,1.3,1.1,2.7,1.5,4c0.4,1.3,0.7,2.6,1,3.9H121c-0.5-2.7-1.3-5.2-2.5-7.5
		c-1.2-2.3-2.4-4.3-3.8-6c-0.5-0.7-1-1.4-1.5-2c-0.5-0.6-1-1.1-1.5-1.6c-0.2,0.1-0.5,0.2-0.7,0.3c-0.3,0.1-0.5,0.2-0.8,0.3V55h-9
		V23.4z M131.7,39.2c0-5.4,1.6-9.6,4.7-12.4c3.1-2.8,7-4.2,11.7-4.2c4.6,0,8.5,1.4,11.7,4.2c3.2,2.8,4.8,6.9,4.8,12.4
		c0,5.4-1.6,9.5-4.8,12.3c-3.2,2.8-7.1,4.2-11.7,4.2c-4.7,0-8.6-1.4-11.7-4.2C133.2,48.7,131.7,44.6,131.7,39.2z M140.9,39.2
		c0,2.5,0.5,4.7,1.6,6.6c1.1,1.9,2.9,2.8,5.5,2.8c2.6,0,4.4-0.9,5.5-2.8c1.1-1.9,1.7-4.1,1.7-6.6s-0.6-4.7-1.7-6.6
		c-1.1-1.9-2.9-2.8-5.5-2.8c-2.6,0-4.5,0.9-5.5,2.8C141.5,34.5,140.9,36.7,140.9,39.2z M168.5,23.4h28V55h-9V30.5h-10V55h-9V23.4z
		 M200.4,39.2c0-5.4,1.6-9.6,4.7-12.4s7-4.2,11.7-4.2c4.6,0,8.5,1.4,11.7,4.2c3.2,2.8,4.8,6.9,4.8,12.4c0,5.4-1.6,9.5-4.8,12.3
		c-3.2,2.8-7.1,4.2-11.7,4.2c-4.7,0-8.6-1.4-11.7-4.2S200.4,44.6,200.4,39.2z M209.7,39.2c0,2.5,0.5,4.7,1.6,6.6
		c1.1,1.9,2.9,2.8,5.5,2.8c2.6,0,4.4-0.9,5.5-2.8s1.7-4.1,1.7-6.6s-0.6-4.7-1.7-6.6c-1.1-1.9-2.9-2.8-5.5-2.8
		c-2.6,0-4.5,0.9-5.5,2.8C210.2,34.5,209.7,36.7,209.7,39.2z M255.6,30.5h-1.1c-0.5,0-1.1,0-1.9,0.1c-0.8,0.1-1.5,0.3-2.3,0.7
		c-1.3,0.6-2.5,1.8-3.5,3.6c-1.1,1.8-1.6,4.5-1.6,8.3c0,0.9,0,1.8,0.1,3c0,1.1,0.1,2.3,0.2,3.5c0.1,1,0.1,1.9,0.2,2.9
		s0.2,1.8,0.3,2.6h-9.1c-0.4-3.2-0.6-5.7-0.7-7.6c-0.1-1.9-0.2-3.3-0.2-4.3c0-6.2,1-10.7,3.1-13.5c2-2.8,4.3-4.6,6.7-5.5
		c0.9-0.3,1.8-0.5,2.6-0.6c0.9-0.1,1.7-0.2,2.5-0.2h13.7V55h-9V30.5z"/>
</g>
</svg>
