<svg xmlns="http://www.w3.org/2000/svg" style="display:none"><defs><style>.cls-1{fill-rule:evenodd}</style><style>.cls-1{fill:#2847bc;fill-rule:evenodd}</style><style>.cls-1{fill-rule:evenodd}</style><style>.cls-1{fill:#64ab3c}</style><style>.cls-1{fill:#64ab3c}</style><style>.cls-1{fill:#64ab3c}</style></defs><symbol id="icon-arrow-bottom" viewBox="0 0 14.938 8"><path id="Forma_1" data-name="Forma 1" class="cls-1" d="M506.742 1031.71l-6.436-6.04a.939.939 0 0 1 0-1.39 1.106 1.106 0 0 1 1.482 0l5.695 5.35 5.695-5.35a1.107 1.107 0 0 1 1.483 0 .941.941 0 0 1 0 1.39l-6.437 6.04a1.092 1.092 0 0 1-1.482 0z" transform="translate(-500.031 -1024)"/></symbol><symbol id="icon-arrow-left" viewBox="0 0 8 15"><path id="Forma_1" data-name="Forma 1" class="cls-1" d="M429.288 416.228l6.038 6.46a.938.938 0 0 0 1.39 0 1.1 1.1 0 0 0 0-1.487l-5.342-5.716 5.342-5.716a1.1 1.1 0 0 0 0-1.488.938.938 0 0 0-1.39 0l-6.038 6.46a1.1 1.1 0 0 0 0 1.487z" transform="translate(-429 -408)"/></symbol><symbol id="icon-arrow-right" viewBox="0 0 8 15"><path id="Forma_1" data-name="Forma 1" class="cls-1" d="M1499.71 416.228l-6.04 6.46a.938.938 0 0 1-1.39 0 1.112 1.112 0 0 1 0-1.487l5.35-5.716-5.35-5.716a1.114 1.114 0 0 1 0-1.488.938.938 0 0 1 1.39 0l6.04 6.46a1.1 1.1 0 0 1 0 1.487z" transform="translate(-1492 -408)"/></symbol><symbol id="icon-email" viewBox="0 0 18.473 13.195"><path id="Path_5" data-name="Path 5" class="cls-1" d="M9.135 9.484l-2.285-2-6.534 5.6a1.338 1.338 0 0 0 .912.358h15.815a1.328 1.328 0 0 0 .908-.358l-6.53-5.6z" transform="translate(.101 -.248)"/><path id="Path_6" data-name="Path 6" class="cls-1" d="M17.954 2.358A1.329 1.329 0 0 0 17.042 2H1.227a1.323 1.323 0 0 0-.909.36l8.817 7.557z" transform="translate(.102 -2)"/><path id="Path_7" data-name="Path 7" class="cls-1" d="M0 2.878V13.84l6.377-5.419z" transform="translate(0 -1.719)"/><path id="Path_8" data-name="Path 8" class="cls-1" d="M9.167 8.422l6.377 5.419V2.875z" transform="translate(2.929 -1.72)"/></symbol><symbol id="icon-map" viewBox="0 0 13.791 19.04"><path id="Path_4" data-name="Path 4" class="cls-1" d="M77.469 0a6.9 6.9 0 0 0-6.9 6.9c0 4.719 6.171 11.646 6.434 11.939a.621.621 0 0 0 .924 0c.263-.293 6.434-7.22 6.434-11.939A6.9 6.9 0 0 0 77.469 0zm0 10.365A3.469 3.469 0 1 1 80.938 6.9a3.473 3.473 0 0 1-3.469 3.465z" transform="translate(-70.573)"/></symbol><symbol id="icon-phone">xmlns=&quot;http://www.w3.org/2000/svg&quot; xmlns:xlink=&quot;http://www.w3.org/1999/xlink&quot; width=&quot;17px&quot; height=&quot;17px&quot;&gt;<path fill-rule="evenodd" fill="#6D953F" d="M16.991 13.415a.823.823 0 0 1-.252.72l-2.394 2.376a1.34 1.34 0 0 1-.422.306 1.75 1.75 0 0 1-.513.162l-.108.009c-.06.006-.138.009-.234.009-.228 0-.597-.039-1.107-.117-.51-.078-1.134-.27-1.871-.576-.738-.306-1.575-.765-2.511-1.377-.935-.612-1.931-1.452-2.987-2.521-.839-.828-1.535-1.62-2.087-2.376a17.006 17.006 0 0 1-1.332-2.098 11.297 11.297 0 0 1-.756-1.746 9.385 9.385 0 0 1-.341-1.351 4.458 4.458 0 0 1-.072-.891c.012-.216.018-.336.018-.36a1.75 1.75 0 0 1 .162-.513c.084-.174.186-.315.305-.423L2.883.253a.793.793 0 0 1 .576-.252c.156 0 .294.045.413.135.121.09.222.201.306.333l1.926 3.655a.878.878 0 0 1 .09.631c-.048.228-.15.419-.306.575l-.882.883a.3.3 0 0 0-.063.117.444.444 0 0 0-.027.135c.048.252.156.54.324.864.144.288.366.639.666 1.053.3.414.726.891 1.278 1.431.539.553 1.019.982 1.439 1.288.42.306.771.531 1.053.675.282.144.498.231.648.261l.224.045a.426.426 0 0 0 .118-.027.316.316 0 0 0 .117-.063l1.025-1.044c.216-.192.468-.288.756-.288.204 0 .366.036.486.108h.018l3.473 2.053c.252.155.402.353.45.594z"/></symbol><symbol id="icon-recycling" viewBox="0 0 82.199 78.82"><g id="recycling" transform="translate(0 -10.523)"><g id="Group_5" data-name="Group 5" transform="translate(17.125 10.523)"><g id="Group_4" data-name="Group 4"><path id="Path_1" data-name="Path 1" class="cls-1" d="M149.868 27.019l-9.525-16.5h-19.777l-13.895 24.068 14.83 8.564 8.953-15.508 4.583 7.939-5.9 3.4 10.089 2.085 10.089 2.085 3.239-9.778 3.241-9.781zm-29.62 11.454l-8.9-5.137 11.193-19.388 5.93 10.272zm29.06-6.173l-2.28 6.886-7.1-1.468-1.277-.263 1.069-.615-1.72-2.97-11.5-19.923h11.865l8.535 14.785 1.713 2.967 1.106-.64z" transform="translate(-106.671 -10.523)"/></g></g><g id="Group_7" data-name="Group 7" transform="translate(39.562 41.3)"><g id="Group_6" data-name="Group 6"><path id="Path_2" data-name="Path 2" class="cls-1" d="M275.167 202.227l-14.83 8.564 8.95 15.505h-9.166v-6.806l-6.848 7.694-6.851 7.7 6.851 7.7 6.848 7.694v-6.848h19.05l9.886-17.126zm2.027 37.768H256.7v1.277l-.868-.973-4.821-5.418 4.821-5.418.868-.973v1.232h26.43zm7.909-13.7h-11.86l-8.228-14.251 8.9-5.137 11.193 19.386z" transform="translate(-246.422 -202.227)"/></g></g><g id="Group_9" data-name="Group 9" transform="translate(0 41.227)"><g id="Group_8" data-name="Group 8"><path id="Path_3" data-name="Path 3" class="cls-1" d="M19.772 225.868l4.583-7.94 5.9 3.4-3.238-9.781-3.241-9.778-10.089 2.085-10.095 2.089 5.933 3.424L0 225.863l9.886 17.123h27.792v-17.118zm-15.816-.005l8.536-14.783 1.711-2.967-1.1-.637 1.277-.263 7.1-1.468 2.283 6.886.409 1.237-1.072-.618-1.711 2.967-11.5 19.92zm30.3 13.7H11.868l5.93-10.272h16.453z" transform="translate(0 -201.774)"/></g></g></g></symbol><symbol id="temp-icon-left-arrow" viewBox="0 0 31.494 31.494"><path d="M10.273 5.01a1.117 1.117 0 0 1 1.587 1.57l-8.047 8.047h26.554c.62 0 1.127.492 1.127 1.11 0 .62-.508 1.128-1.127 1.128H3.813l8.047 8.032c.43.444.43 1.16 0 1.587a1.112 1.112 0 0 1-1.587 0L.32 16.532a1.12 1.12 0 0 1 0-1.57l9.953-9.953z"/></symbol><symbol id="temp-icon-right-arrow" viewBox="0 0 31.49 31.49"><path d="M21.205 5.007a1.117 1.117 0 0 0-1.587 1.57l8.047 8.048H1.11c-.618 0-1.11.493-1.11 1.112 0 .62.492 1.127 1.11 1.127h26.555l-8.047 8.032c-.43.444-.43 1.16 0 1.587.444.444 1.16.444 1.587 0l9.952-9.952a1.092 1.092 0 0 0 0-1.57l-9.952-9.95z"/></symbol></svg>